<svg width="2193" height="722" viewBox="0 0 2193 722" fill="none" xmlns="http://www.w3.org/2000/svg">
<rect x="11" y="11" width="700" height="700" rx="350" stroke="#F5F5F5" stroke-width="22"/>
<path d="M592.551 214.176H580.58V197.889C580.732 184.958 564.577 178.082 554.598 185.639C551.596 183.742 548.148 182.668 544.601 182.523C541.053 182.378 537.529 183.168 534.382 184.813C524.537 179.54 510.744 186.64 510.735 198.067L510.26 214.176H492.364C487.867 214.183 483.545 215.924 480.299 219.037C477.053 222.15 475.132 226.396 474.936 230.89C470.015 244.9 460.335 256.737 447.583 264.339C446.711 264.864 446.046 265.672 445.698 266.628C445.351 267.584 445.341 268.63 445.672 269.592C445.891 270.206 446.243 270.764 446.705 271.224C447.166 271.685 447.724 272.037 448.338 272.255C448.952 272.473 449.606 272.551 450.254 272.485C450.903 272.419 451.528 272.209 452.085 271.871C461.137 266.396 468.914 259.049 474.894 250.321C474.877 257.652 474.905 420.93 474.894 423.182C474.899 427.814 476.741 432.254 480.015 435.529C483.289 438.804 487.728 440.646 492.358 440.652H556.616C563.756 451.525 569.913 463.013 575.013 474.981C483.586 526.206 456.056 444.368 449.698 423.801C447.885 418.515 439.587 420.993 441.393 426.609C441.661 427.462 463.447 504.31 533.681 571.268C507.84 581.174 483.917 559.46 482.254 557.908C458.794 532.624 441.783 505.213 431.348 480.438C442.179 471.364 440.924 454.056 428.891 440.454C424.187 435.156 422.3 423.231 421.694 415.441C421.559 413.803 420.825 412.272 419.634 411.141C418.442 410.009 416.876 409.356 415.234 409.305C408.333 409.02 400.927 404.707 397.212 400.546C393.603 396.589 391.345 391.587 390.764 386.263C390.183 380.938 391.309 375.567 393.98 370.925C395.547 368.129 397.772 363.526 401.764 365.165C406.911 367.88 403.689 371.841 401.62 375.236C399.875 378.29 399.141 381.819 399.525 385.316C399.909 388.813 401.391 392.099 403.758 394.701C407.491 398.88 414.414 402.516 422.062 398.855C434.029 393.121 436.418 380.122 436.588 368.705C437.233 357.787 434.388 344.043 422.75 328.945C413.378 316.105 425.648 304.275 425.134 290.037C442.454 275.017 442.782 250.306 424.298 234.749C434.983 163.356 346.032 157.677 332.886 214.687C329.552 223.21 323.82 230.584 316.383 235.915C302.014 246.862 297.614 266.192 314.72 281.017C314.193 282.645 313.776 284.307 313.471 285.992C303.097 288.505 288.14 297.885 272.635 327.049C264.906 327.067 252.96 330.981 246.021 345.696C239.753 343.107 227.144 339.113 209.302 339.172C207.188 326.98 204.64 314.919 201.66 302.989C211.719 297.568 213.741 285.352 206.348 276.875C216.764 270.387 222.131 259.359 216.904 247.6L211.809 236.431C210.867 234.405 209.506 232.6 207.817 231.138C206.127 229.675 204.147 228.587 202.007 227.945C199.867 227.303 197.615 227.122 195.4 227.414C193.184 227.706 191.056 228.464 189.155 229.638L179.881 235.457C179.667 235.547 179.461 235.64 179.25 235.732C173.827 222.69 169.741 209.131 167.057 195.264C220.984 160.433 349.554 115.997 513.85 137.575C518.32 138.248 520.79 131.781 516.638 129.447C440.987 86.7147 295.372 57.4428 162.74 106.779C148.984 112.677 136.994 117.165 134.107 133.73C130.517 155.876 128.48 200.429 154.331 251.987C139.524 266.495 132.252 279.991 146.026 289.122C144.906 292.33 144.877 295.819 145.945 299.045C147.012 302.271 149.116 305.054 151.93 306.96C152.695 343.792 150.896 380.632 146.545 417.214C145.516 422.184 132.977 487.443 171.446 540.965C169.324 576.267 170.744 607.872 181.308 635.27C181.727 636.356 182.56 637.231 183.624 637.703C184.688 638.174 185.896 638.204 186.981 637.785C188.067 637.366 188.942 636.533 189.414 635.469C189.885 634.405 189.915 633.197 189.496 632.111C160.193 553.653 207.33 428.882 185.782 340.037L198.181 327.577C206.847 370.29 210.471 414.313 204.1 457.742C185.41 590.671 202.912 633.654 203.666 635.425C205.957 640.641 213.92 637.297 211.736 631.994C211.635 631.748 205.701 616.794 204.549 578.097C243.079 618.831 252.75 636.492 258.324 637.444C280.128 633.458 288.397 604.998 285.728 557.821C311.54 584.358 374.534 633.331 448.314 627.972C470.843 652.495 536.228 655.865 587.715 641.449C588.572 641.224 589.341 640.747 589.924 640.08C590.506 639.412 590.874 638.585 590.98 637.706C591.086 636.826 590.925 635.935 590.519 635.148C590.112 634.361 589.478 633.715 588.699 633.293C579.465 628.37 559.763 616.457 559.25 607.767C559.442 605.727 562.525 603.653 567.731 602.066C568.575 601.831 569.334 601.361 569.92 600.71C570.577 599.952 570.955 598.993 570.992 597.991C571.03 596.988 570.724 596.003 570.126 595.198C569.831 594.804 563.767 586.765 551.528 575.577L551.581 575.617C527.353 550.747 549.974 517.61 556.892 512.908C571.344 499.939 585.462 518.264 590.394 528.411C592.353 532.863 599.316 530.986 598.746 526.136C598.564 524.365 594.099 484.09 567.038 440.658H592.537C597.167 440.652 601.606 438.81 604.88 435.535C608.154 432.26 609.995 427.819 610 423.188C610 423.188 609.982 232.375 610 231.653C609.997 227.023 608.158 222.582 604.887 219.306C601.616 216.03 597.18 214.185 592.551 214.176ZM202.622 142.899C248.955 125.348 320.364 108.405 403.917 123.404C327.537 125.072 240.209 145.015 179.187 178.154C176.827 153.668 200.224 143.839 202.622 142.899ZM142.766 135.137C144.001 126.79 150.31 121.33 157.958 118.558C146.696 174.237 163.877 222.323 171.354 239.602C167.83 241.552 164.446 243.748 161.23 246.173C137.464 197.624 139.392 155.962 142.766 135.137ZM182.123 432.55C181.347 441.085 180.485 449.549 179.588 457.914C153.884 445.986 155.124 420.189 155.249 418.345C159.003 386.776 160.886 355.013 160.888 323.221C162.897 324.259 165.133 324.781 167.394 324.74C169.655 324.699 171.871 324.097 173.841 322.987C179.773 353.547 185.496 395.464 182.123 432.55ZM198.87 294.273C192.313 298.712 179.878 307.288 170.276 314.852C169.457 315.509 168.454 315.896 167.406 315.957C166.358 316.018 165.317 315.752 164.428 315.195C158.087 311.463 167.411 304.297 159.972 301.304C154.798 299.68 151.981 295.035 155.678 288.679C155.981 288.071 156.141 287.401 156.145 286.721C156.148 286.041 155.996 285.37 155.7 284.758C155.404 284.146 154.971 283.611 154.435 283.192C153.9 282.774 153.275 282.484 152.61 282.345C148.999 281.604 145.99 278.635 148.577 273.078C149.404 271.502 159.274 253.547 183.617 243.397C189.87 241.627 188.715 249.247 188.253 253.605L169.003 266.692C168.509 267.008 168.084 267.42 167.752 267.903C167.42 268.387 167.188 268.932 167.07 269.506C166.953 270.081 166.951 270.673 167.066 271.248C167.181 271.823 167.41 272.37 167.74 272.855C168.069 273.34 168.493 273.754 168.985 274.072C169.478 274.391 170.029 274.607 170.606 274.709C171.184 274.811 171.776 274.796 172.347 274.665C172.919 274.534 173.458 274.289 173.934 273.946L193.008 260.985C197.512 263.282 198.056 267.918 195.641 272.504L176.809 285.635C173.276 287.916 175.202 293.781 179.322 293.623C180.793 294.501 197.071 281.843 198.524 281.19C202.307 284.916 203.849 290.878 198.87 294.273ZM380.514 184.896C404.271 184.004 419.149 205.923 416.321 228.006C415.188 238.467 413.08 248.8 410.025 258.869C404.864 255.216 398.921 252.819 392.67 251.869C386.419 250.919 380.032 251.442 374.019 253.397C371.854 254.32 366.348 254.713 365.364 252.525C365.097 251.968 364.428 249.725 367.001 244.228C367.678 242.766 368.007 241.167 367.962 239.556C367.916 237.945 367.498 236.367 366.739 234.946C365.98 233.524 364.902 232.298 363.589 231.364C362.277 230.43 360.765 229.814 359.174 229.563L353.395 228.702C347.69 227.953 346.407 236.431 352.109 237.381L357.886 238.243C358.135 238.275 358.372 238.367 358.578 238.511C358.784 238.655 358.951 238.847 359.066 239.07C359.181 239.294 359.24 239.542 359.238 239.793C359.237 240.044 359.174 240.291 359.055 240.512C357.393 243.77 356.461 247.351 356.327 251.006C349.914 249.894 343.315 250.754 337.401 253.472C338.447 229.246 337.526 186.85 380.514 184.896ZM279.844 515.397C278.674 509.756 270.252 511.33 271.223 517.023C280.98 560.659 279.902 616.721 262.567 626.73C259.81 537.404 236.65 456.617 216.042 403.187C215.606 387.728 214.276 372.307 212.056 357.001C221.5 372.027 238.549 402.566 253.32 447.306C253.685 448.411 254.473 449.326 255.512 449.849C256.552 450.372 257.756 450.461 258.861 450.096C259.965 449.731 260.88 448.942 261.403 447.903C261.926 446.864 262.015 445.659 261.65 444.554C244.988 394.088 225.837 361.762 216.867 348.187C234.668 349.419 245.146 354.888 246.065 355.387C247.083 356.082 263.406 367.861 271.156 409.423C276.285 446.896 293.869 506.553 321.872 552.908C288.796 548.5 279.844 515.397 279.844 515.397ZM386.57 538.95C384.165 535.44 381.817 531.926 379.525 528.409C379.199 527.91 378.776 527.482 378.279 527.151C377.783 526.821 377.225 526.595 376.638 526.488C376.052 526.381 375.45 526.394 374.869 526.527C374.288 526.66 373.74 526.91 373.259 527.262C372.352 527.973 371.749 529.002 371.571 530.14C371.393 531.279 371.655 532.443 372.302 533.396C385.944 554.211 400.854 574.165 416.949 593.146C328.343 578.136 295.676 475.155 290.038 454.711C279.222 412.467 276.301 369.766 253.613 350.214C260.73 334.125 273.918 335.875 274.476 335.956C275.394 336.108 276.336 335.965 277.167 335.547C277.998 335.129 278.675 334.458 279.1 333.63C292.615 307.249 305.031 298.285 312.865 295.35C312.955 297.663 313.191 299.965 313.496 302.296C309.362 306.191 300.679 316.337 302.735 331.313C303.914 339.899 313.303 355.746 328.093 351.192C335.345 349.729 344.177 336.854 334.249 332.436C333.108 332.089 331.91 331.973 330.723 332.093C329.537 332.214 328.386 332.569 327.338 333.138C326.319 333.621 325.156 333.706 324.076 333.377C322.997 333.049 322.079 332.329 321.502 331.36C318.121 323.236 332.862 322.214 337.188 324.172C346.05 327.118 350.119 338.429 345.701 346.57C339.952 358.778 326.961 362.76 314.988 359.464C304.918 357.69 307.29 375.575 309.183 382.21C314.418 411.212 337.905 412.318 337.779 420.258C337.405 443.668 355.927 471.321 377.395 451.374C381.773 447.307 377.472 438.332 377.442 438.27C375.206 432.955 383.002 429.504 385.443 434.673C385.64 435.107 390.205 445.431 385.202 454.533C384.246 456.273 383.015 457.847 381.557 459.194C381.09 459.611 380.728 460.13 380.499 460.712C380.27 461.293 380.18 461.92 380.237 462.542C380.294 463.165 380.496 463.765 380.826 464.295C381.157 464.826 381.608 465.271 382.141 465.596C387.632 469.501 398.67 469.904 403.99 475.073C412.098 481.907 417.66 483.897 423.19 483.653C441.723 529.618 479.309 575.817 533.53 611.75C450.144 621.069 397.766 554.731 386.57 538.95ZM519.504 198.306C519.549 193.566 525.324 190.545 529.573 192.329C531.948 193.237 534.819 195.307 537.293 193.304C538.014 192.776 544.556 188.331 551.9 194.49C552.752 195.193 553.837 195.552 554.941 195.496C556.044 195.44 557.087 194.974 557.865 194.188C561.905 189.78 571.22 190.082 571.817 197.89V222.737C571.218 228.887 563.654 227.818 559.108 225.678V206.538C559.108 205.374 558.646 204.258 557.824 203.436C557.001 202.613 555.885 202.15 554.722 202.15C553.559 202.15 552.443 202.613 551.62 203.436C550.798 204.258 550.336 205.374 550.336 206.538V225.626C545.72 227.758 543.111 227.973 539.038 225.834V206.538C539.038 205.374 538.576 204.258 537.753 203.436C536.93 202.613 535.815 202.15 534.651 202.15C533.488 202.15 532.373 202.613 531.55 203.436C530.727 204.258 530.265 205.374 530.265 206.538V226.088C527.136 227.822 518.939 228.311 518.796 222.647L519.504 198.306ZM483.676 329.452H493.755V403.461H483.676V329.452ZM601.241 423.181C601.239 425.486 600.323 427.696 598.693 429.326C597.064 430.956 594.855 431.872 592.551 431.875H492.368C490.063 431.872 487.854 430.956 486.224 429.326C484.595 427.696 483.678 425.486 483.676 423.181V413.001H601.241V423.181ZM560.802 313.564C551.752 318.478 550.012 331.472 558.712 337.634C566.38 343.148 572.552 350.489 576.67 358.99C580.788 367.492 582.722 376.887 582.296 386.325C575.491 373.454 555.667 348.532 535.902 354.718C519.584 360.873 508.999 374.46 502.527 386.325C502.112 376.883 504.055 367.487 508.182 358.986C512.31 350.485 518.49 343.148 526.165 337.637C534.885 331.458 533.118 318.449 524.041 313.54C502.971 296.943 501.619 275.763 502.527 250.592H582.3C583.193 275.835 581.882 296.941 560.802 313.564ZM582.391 301.731V350.999C579.398 345.732 575.658 340.928 571.287 336.735C568.956 334.51 566.481 332.441 563.878 330.542C563.217 330.059 562.681 329.425 562.313 328.693C561.945 327.962 561.756 327.153 561.762 326.334C561.768 325.515 561.969 324.709 562.348 323.983C562.726 323.257 563.272 322.631 563.94 322.158C571.521 316.792 577.821 309.817 582.391 301.731ZM502.527 350.889V301.839C506.634 309.06 512.126 315.399 518.688 320.491C520.707 321.963 523.265 323.508 523.132 326.35C523.139 327.169 522.948 327.978 522.576 328.708C522.204 329.438 521.662 330.067 520.995 330.543C518.383 332.449 515.899 334.525 513.56 336.757C509.225 340.916 505.509 345.674 502.527 350.889ZM601.241 241.825H483.676V231.646C483.678 229.341 484.595 227.131 486.224 225.501C487.854 223.871 490.063 222.954 492.368 222.951H510.03C510.3 235.457 525.65 238.995 534.889 233.558C542.203 237.35 547.691 236.544 554.638 233.285C564.837 238.901 580.005 236.279 580.57 222.951H592.55C594.854 222.954 597.063 223.871 598.692 225.501C600.321 227.131 601.238 229.341 601.24 231.646L601.241 241.825Z" fill="#F5F5F5"/>
<path d="M566.614 273.352H518.209C517.542 273.352 516.884 273.504 516.284 273.797C515.684 274.09 515.16 274.516 514.749 275.043C511.576 277.429 519.545 301.244 537.441 308.745C556.604 316.351 572.035 279.599 570.872 278.811C571.029 278.164 571.038 277.49 570.898 276.839C570.758 276.187 570.473 275.576 570.063 275.051C569.654 274.526 569.131 274.101 568.533 273.806C567.936 273.512 567.28 273.357 566.614 273.352Z" fill="#F5F5F5"/>
<path d="M381.697 238.666C381.603 238.804 389.885 237.379 390.095 237.379C395.771 236.372 394.423 227.902 388.709 228.714L381.009 229.946C375.75 230.76 376.424 238.696 381.697 238.666Z" fill="#F5F5F5"/>
<path d="M918.2 504.6C884.867 504.6 858.333 495 838.6 475.8C818.867 456.333 809 428.067 809 391V327C809 289.933 818.867 261.8 838.6 242.6C858.333 223.133 884.867 213.4 918.2 213.4C951.267 213.4 976.6 222.6 994.2 241C1012.07 259.4 1021 284.6 1021 316.6V318.6H987.8V315.4C987.8 294.333 982.067 277.133 970.6 263.8C959.4 250.2 941.933 243.4 918.2 243.4C894.467 243.4 875.933 250.733 862.6 265.4C849.267 279.8 842.6 300.067 842.6 326.2V391.8C842.6 417.933 849.267 438.333 862.6 453C875.933 467.4 894.467 474.6 918.2 474.6C941.933 474.6 959.4 467.933 970.6 454.6C982.067 441 987.8 423.667 987.8 402.6V396.2H1021V401.4C1021 433.4 1012.07 458.6 994.2 477C976.6 495.4 951.267 504.6 918.2 504.6ZM1074.84 499V303.4H1105.64V327.4H1111.24C1114.71 318.867 1120.04 312.6 1127.24 308.6C1134.44 304.6 1143.91 302.6 1155.64 302.6H1178.84V331.4H1153.64C1139.51 331.4 1128.04 335.4 1119.24 343.4C1110.71 351.133 1106.44 363.267 1106.44 379.8V499H1074.84ZM1308.99 504.6C1289.26 504.6 1271.79 500.467 1256.59 492.2C1241.66 483.933 1229.92 472.333 1221.39 457.4C1213.12 442.2 1208.99 424.333 1208.99 403.8V398.6C1208.99 378.333 1213.12 360.6 1221.39 345.4C1229.92 330.2 1241.66 318.467 1256.59 310.2C1271.79 301.933 1289.26 297.8 1308.99 297.8C1328.72 297.8 1346.06 301.933 1360.99 310.2C1376.19 318.467 1387.92 330.2 1396.19 345.4C1404.72 360.6 1408.99 378.333 1408.99 398.6V403.8C1408.99 424.333 1404.72 442.2 1396.19 457.4C1387.92 472.333 1376.19 483.933 1360.99 492.2C1346.06 500.467 1328.72 504.6 1308.99 504.6ZM1308.99 476.2C1329.79 476.2 1346.32 469.667 1358.59 456.6C1371.12 443.267 1377.39 425.4 1377.39 403V399.4C1377.39 377 1371.12 359.267 1358.59 346.2C1346.32 332.867 1329.79 326.2 1308.99 326.2C1288.46 326.2 1271.92 332.867 1259.39 346.2C1246.86 359.267 1240.59 377 1240.59 399.4V403C1240.59 425.4 1246.86 443.267 1259.39 456.6C1271.92 469.667 1288.46 476.2 1308.99 476.2ZM1465.86 499V303.4H1496.66V336.6H1502.26C1506.52 327.267 1513.72 318.867 1523.86 311.4C1534.26 303.667 1549.46 299.8 1569.46 299.8C1584.12 299.8 1597.19 302.867 1608.66 309C1620.39 315.133 1629.72 324.2 1636.66 336.2C1643.59 348.2 1647.06 363 1647.06 380.6V499H1615.46V383C1615.46 363.533 1610.52 349.4 1600.66 340.6C1591.06 331.8 1577.99 327.4 1561.46 327.4C1542.52 327.4 1527.06 333.533 1515.06 345.8C1503.32 358.067 1497.46 376.333 1497.46 400.6V499H1465.86ZM1801.57 504.6C1781.84 504.6 1764.37 500.467 1749.17 492.2C1734.24 483.933 1722.5 472.333 1713.97 457.4C1705.7 442.2 1701.57 424.333 1701.57 403.8V398.6C1701.57 378.333 1705.7 360.6 1713.97 345.4C1722.5 330.2 1734.24 318.467 1749.17 310.2C1764.37 301.933 1781.84 297.8 1801.57 297.8C1821.3 297.8 1838.64 301.933 1853.57 310.2C1868.77 318.467 1880.5 330.2 1888.77 345.4C1897.3 360.6 1901.57 378.333 1901.57 398.6V403.8C1901.57 424.333 1897.3 442.2 1888.77 457.4C1880.5 472.333 1868.77 483.933 1853.57 492.2C1838.64 500.467 1821.3 504.6 1801.57 504.6ZM1801.57 476.2C1822.37 476.2 1838.9 469.667 1851.17 456.6C1863.7 443.267 1869.97 425.4 1869.97 403V399.4C1869.97 377 1863.7 359.267 1851.17 346.2C1838.9 332.867 1822.37 326.2 1801.57 326.2C1781.04 326.2 1764.5 332.867 1751.97 346.2C1739.44 359.267 1733.17 377 1733.17 399.4V403C1733.17 425.4 1739.44 443.267 1751.97 456.6C1764.5 469.667 1781.04 476.2 1801.57 476.2Z" fill="#F5F5F5"/>
<path d="M2058.83 504.6C2025.5 504.6 1998.83 495 1978.83 475.8C1959.1 456.333 1949.23 428.067 1949.23 391V327C1949.23 289.933 1959.1 261.8 1978.83 242.6C1998.83 223.133 2025.5 213.4 2058.83 213.4C2092.43 213.4 2119.1 223.133 2138.83 242.6C2158.83 261.8 2168.83 289.933 2168.83 327V391C2168.83 428.067 2158.83 456.333 2138.83 475.8C2119.1 495 2092.43 504.6 2058.83 504.6ZM2058.83 474.6C2083.1 474.6 2101.9 467.4 2115.23 453C2128.57 438.333 2135.23 418.067 2135.23 392.2V325.8C2135.23 299.933 2128.57 279.8 2115.23 265.4C2101.9 250.733 2083.1 243.4 2058.83 243.4C2034.83 243.4 2016.17 250.733 2002.83 265.4C1989.5 279.8 1982.83 299.933 1982.83 325.8V392.2C1982.83 418.067 1989.5 438.333 2002.83 453C2016.17 467.4 2034.83 474.6 2058.83 474.6ZM2075.23 563.8C2065.37 563.8 2057.37 560.733 2051.23 554.6C2045.37 548.733 2042.43 540.6 2042.43 530.2V499H2075.23V524.2C2075.23 532.2 2078.97 536.2 2086.43 536.2H2112.83V563.8H2075.23Z" fill="#97FEED"/>
</svg>
